<svg width="30" height="27" viewBox="0 0 30 27" fill="none" xmlns="http://www.w3.org/2000/svg">
<path d="M11.5858 26.0136L11.5777 26.0093L11.552 25.9923C11.4018 25.892 11.2529 25.789 11.1052 25.6835C9.32928 24.4021 7.66965 22.8968 6.15383 21.1926C3.46933 18.1511 0.625 13.6376 0.625 8.07856C0.625 3.93056 3.49967 0.641061 6.96933 0.641061C7.93388 0.635325 8.88708 0.89371 9.75804 1.397C10.629 1.90029 11.3953 2.63554 12 3.54806C12.6048 2.63535 13.3713 1.89999 14.2425 1.39669C15.1137 0.893394 16.0671 0.635111 17.0318 0.641061C20.5003 0.641061 23.375 3.93056 23.375 8.07856C23.375 13.639 20.5307 18.1525 17.8462 21.1912C16.3304 22.8954 14.6707 24.4007 12.8948 25.6821C12.7471 25.7881 12.5982 25.8915 12.448 25.9923L12.4223 26.0093L12.4142 26.015L12.4107 26.0164C12.2842 26.0978 12.1432 26.1403 12 26.1403C11.8568 26.1403 11.7158 26.0978 11.5893 26.0164L11.5858 26.0136Z" fill="white"/>
<path d="M21.8933 23.6721L25.0833 16.103H22.8833V11.2054L19.5833 18.7744H21.8933V23.6721ZM22.3333 26.3435C21.3189 26.3435 20.3656 26.1097 19.4733 25.6422C18.5811 25.1747 17.805 24.5403 17.145 23.7388C16.485 22.9374 15.9625 21.995 15.5775 20.9116C15.1925 19.8282 15 18.6706 15 17.4387C15 16.2069 15.1925 15.0493 15.5775 13.9659C15.9625 12.8825 16.485 11.94 17.145 11.1386C17.805 10.3372 18.5811 9.70272 19.4733 9.23522C20.3656 8.76772 21.3189 8.53397 22.3333 8.53397C23.3478 8.53397 24.3011 8.76772 25.1933 9.23522C26.0856 9.70272 26.8617 10.3372 27.5217 11.1386C28.1817 11.94 28.7042 12.8825 29.0892 13.9659C29.4742 15.0493 29.6667 16.2069 29.6667 17.4387C29.6667 18.6706 29.4742 19.8282 29.0892 20.9116C28.7042 21.995 28.1817 22.9374 27.5217 23.7388C26.8617 24.5403 26.0856 25.1747 25.1933 25.6422C24.3011 26.1097 23.3478 26.3435 22.3333 26.3435Z" fill="#894189"/>
<path d="M22.2667 23.1053L25.1667 16.2244H23.1667V11.772L20.1667 18.653H22.2667V23.1053ZM22.6667 25.5339C21.7444 25.5339 20.8778 25.3214 20.0667 24.8964C19.2556 24.4714 18.55 23.8946 17.95 23.1661C17.35 22.4375 16.875 21.5807 16.525 20.5958C16.175 19.6109 16 18.5585 16 17.4387C16 16.3188 16.175 15.2665 16.525 14.2815C16.875 13.2966 17.35 12.4399 17.95 11.7113C18.55 10.9827 19.2556 10.4059 20.0667 9.98094C20.8778 9.55594 21.7444 9.34344 22.6667 9.34344C23.5889 9.34344 24.4556 9.55594 25.2667 9.98094C26.0778 10.4059 26.7833 10.9827 27.3833 11.7113C27.9833 12.4399 28.4583 13.2966 28.8083 14.2815C29.1583 15.2665 29.3333 16.3188 29.3333 17.4387C29.3333 18.5585 29.1583 19.6109 28.8083 20.5958C28.4583 21.5807 27.9833 22.4375 27.3833 23.1661C26.7833 23.8946 26.0778 24.4714 25.2667 24.8964C24.4556 25.3214 23.5889 25.5339 22.6667 25.5339Z" fill="white"/>
</svg>
